<svg xmlns="http://www.w3.org/2000/svg" width="36" height="20" viewBox="0 0 36 20" xml:space="preserve">
    <path fill="#F3312E" d="M36 17a3 3 0 0 1-3 3H3a3 3 0 0 1-3-3V3a3 3 0 0 1 3-3h30a3 3 0 0 1 3 3v14z"/>
    <g fill="#FFF">
        <path d="M4.746 6.321c0-.304.108-.528.324-.672s.46-.216.731-.216c.128 0 .254.018.379.054.123.036.233.09.329.162a.762.762 0 0 1 .229.276.876.876 0 0 1 .084.396v6.708h3.456c.336 0 .57.076.702.229s.198.332.198.54c0 .08-.013.162-.036.246a.55.55 0 0 1-.139.233.798.798 0 0 1-.275.181 1.196 1.196 0 0 1-.45.071H5.73c-.305 0-.544-.071-.721-.216-.176-.144-.264-.348-.264-.612v-7.38zM12.162 6.321c0-.304.11-.528.33-.672s.466-.216.738-.216c.128 0 .254.018.378.054s.233.09.33.162a.77.77 0 0 1 .228.276.876.876 0 0 1 .084.396v7.284c0 .16-.028.298-.084.414s-.132.212-.228.288c-.097.076-.206.132-.33.168s-.25.054-.378.054c-.137 0-.269-.018-.396-.054s-.242-.092-.342-.168-.18-.172-.24-.288a.89.89 0 0 1-.09-.414V6.321zM15.414 6.669c-.057-.136-.08-.266-.072-.39s.04-.236.096-.336a1 1 0 0 1 .217-.264.937.937 0 0 1 .3-.174c.128-.048.26-.078.396-.09.136-.012.264-.002.384.03s.228.086.324.162a.697.697 0 0 1 .216.294l2.279 6.181 2.257-6.181c.023-.056.062-.12.113-.192a.631.631 0 0 1 .229-.186c.1-.052.222-.086.366-.102s.315.004.516.06a1.037 1.037 0 0 1 .582.456.807.807 0 0 1 .065.672l-2.796 7.188c-.04.096-.094.189-.162.282a1.1 1.1 0 0 1-.264.252 1.444 1.444 0 0 1-.384.186 1.697 1.697 0 0 1-.522.072c-.208 0-.39-.028-.546-.084a1.47 1.47 0 0 1-.39-.204 1.177 1.177 0 0 1-.252-.258 1.445 1.445 0 0 1-.145-.258l-2.807-7.116zM27.114 13.029h3.191c.305 0 .538.076.702.229s.246.332.246.54c0 .08-.018.162-.054.246s-.095.162-.174.233c-.08.072-.179.132-.294.181a1.122 1.122 0 0 1-.427.071h-4.38c-.28 0-.498-.071-.653-.216-.156-.144-.234-.348-.234-.612V6.189c0-.224.086-.406.258-.546s.386-.21.642-.21h4.393c.304 0 .534.074.689.222a.71.71 0 0 1 .234.534c0 .168-.072.33-.216.486-.145.156-.38.234-.708.234h-3.216v2.328h2.808c.304 0 .528.072.672.216.145.144.216.32.216.528 0 .168-.065.33-.197.486-.133.156-.362.234-.69.234h-2.808v2.328z"/>
    </g>
</svg>
